<?xml version="1.0" encoding="utf-8"?><svg viewBox="0 0 512 512" xmlns="http://www.w3.org/2000/svg" xmlns:xlink="http://www.w3.org/1999/xlink"><style>:root>svg{display:none}:root>svg:target{display:block}</style><svg viewBox="0 0 512 512" id="clock" xmlns="http://www.w3.org/2000/svg"><!--! Font Awesome Free 6.3.0 by @fontawesome - https://fontawesome.com License - https://fontawesome.com/license/free (Icons: CC BY 4.0, Fonts: SIL OFL 1.1, Code: MIT License) Copyright 2023 Fonticons, Inc.--><path d="M256 0a256 256 0 1 1 0 512 256 256 0 1 1 0-512zm-24 120v136c0 8 4 15.5 10.7 20l96 64c11 7.4 25.9 4.4 33.3-6.7s4.4-25.9-6.7-33.3L280 243.2V120c0-13.3-10.7-24-24-24s-24 10.7-24 24z"/></svg><svg viewBox="0 0 512 512" id="envelope" xmlns="http://www.w3.org/2000/svg"><!--! Font Awesome Free 6.3.0 by @fontawesome - https://fontawesome.com License - https://fontawesome.com/license/free (Icons: CC BY 4.0, Fonts: SIL OFL 1.1, Code: MIT License) Copyright 2023 Fonticons, Inc.--><path d="M48 64C21.5 64 0 85.5 0 112c0 15.1 7.1 29.3 19.2 38.4l217.6 163.2c11.4 8.5 27 8.5 38.4 0l217.6-163.2c12.1-9.1 19.2-23.3 19.2-38.4 0-26.5-21.5-48-48-48H48zM0 176v208c0 35.3 28.7 64 64 64h384c35.3 0 64-28.7 64-64V176L294.4 339.2a63.9 63.9 0 0 1-76.8 0L0 176z"/></svg><svg viewBox="0 0 384 512" id="location-dot" xmlns="http://www.w3.org/2000/svg"><!--! Font Awesome Free 6.3.0 by @fontawesome - https://fontawesome.com License - https://fontawesome.com/license/free (Icons: CC BY 4.0, Fonts: SIL OFL 1.1, Code: MIT License) Copyright 2023 Fonticons, Inc.--><path d="M215.7 499.2C267 435 384 279.4 384 192 384 86 298 0 192 0S0 86 0 192c0 87.4 117 243 168.3 307.2 12.3 15.3 35.1 15.3 47.4 0zM192 128a64 64 0 1 1 0 128 64 64 0 1 1 0-128z"/></svg><svg version="1.0" viewBox="0 0 320 49" id="logo" xmlns="http://www.w3.org/2000/svg"><path d="M16.7 1.6C7.8 4.4 0 15 0 24.5c0 5.4 3.2 12.8 7.5 17 13.8 13.8 36.6 6.8 40.7-12.6C50.6 17.2 43.3 5 31.9 1.6 25.5-.3 23-.3 16.7 1.6zm19.1 21.8c.2 10.8.1 12.1-1.7 13.7-2.2 2.1-4.1 2.5-4.1.9 0-.6-2.2-1-5-1-2.7 0-5 .4-5 1 0 1.7-2.2 1.1-4.1-1.2C14.3 35 14 33 14 23.5c0-6.1.3-11.5.7-11.9.4-.4 5.2-.5 10.7-.4l10.1.3.3 11.9z"/><path d="M17 19.5V25h16V14H17v5.5zm4.8-.3c-.2 1.3-.7 2.3-1.3 2.3-.5 0-1.1-1-1.3-2.3-.2-1.5.2-2.2 1.3-2.2s1.5.7 1.3 2.2zM17 31v3h16v-6H17v3zM90.1 11.4c-.8.9-1.1 5.5-.9 13.7l.3 12.4 2.8.3 2.7.3V24.7c0-11.4-.2-13.6-1.6-14.1-2.1-.8-2-.8-3.3.8zM224.2 10.8c-.9.7-1.2 4.1-1 13.8l.3 12.9 2.8.3 2.7.3V24.7c0-11.4-.2-13.6-1.6-14.1-1.9-.7-1.6-.7-3.2.2zM233.4 12.5c-.8 2.1.2 4.5 1.9 4.5 2 0 4-2.7 3.3-4.5-.7-1.9-4.5-2-5.2 0zM64.7 12.6c-.4.4-.7 5.1-.7 10.3 0 11 1.1 13.5 6.5 15 4.3 1.2 9.5-.1 12.1-3 1.6-1.8 1.9-3.7 1.9-12.3V12.5H82c-2.5 0-2.5.1-3 9.8-.5 10-1.2 11.6-5.1 11.7-3.2 0-4.4-3.1-4.9-12.4-.4-7.1-.8-9.1-2-9.4-.9-.1-1.9 0-2.3.4zM162.5 13.2c-.2.7-2.3 6.4-4.5 12.7-2.2 6.3-4 11.6-4 11.8 0 .2 1.1.3 2.6.3 1.9 0 2.8-.7 3.5-3 1-2.7 1.5-3 5.6-3s4.6.3 5.6 3c.9 2.3 1.7 3 3.9 3 1.5 0 2.8-.3 2.7-.8 0-.4-1.9-6.1-4.2-12.7-4.2-11.8-4.3-12-7.5-12.3-2-.2-3.4.2-3.7 1zm4.4 8c2.5 6.6 2.4 6.8-.8 6.8-3.5 0-3.5.1-1.9-5.1 1.3-4.5 1.6-4.7 2.7-1.7zM100.7 14.6c-.4.4-.7 1.4-.7 2.2 0 .8-.8 2.1-1.7 2.8-1.7 1.3-1.7 1.5 0 2.8 1.2 1 1.7 2.8 1.7 6.9 0 6.6 1.6 8.7 6.6 8.7 2.7 0 3.4-.4 3.4-2 0-1.3-.7-2-2-2-1.8 0-2-.7-2-5.5s.2-5.5 2-5.5c1.3 0 2-.7 2-2s-.7-2-1.9-2c-1.3 0-2.1-.8-2.3-2.3-.3-2.2-3.6-3.6-5.1-2.1zM120.1 19.6c-1.2.9-2.1 1.1-2.1.5 0-.6-1.1-1.1-2.5-1.1-2.5 0-2.5 0-2.5 9.6v9.5l2.8-.3c2.6-.3 2.7-.6 3.2-6.8.5-5.8.7-6.5 3-7 1.5-.4 2.6-1.4 2.8-2.7.4-2.7-2-3.5-4.7-1.7zM131 19.3c-1.9.7-3.5 1.9-3.5 2.7 0 1.2 1 1.4 4.8 1.2 3.6-.3 4.7 0 4.7 1.1 0 1.6-2 2.7-5.1 2.7-3 0-6.1 3.7-5.3 6.3 1.3 4.6 2.7 5.1 12.4 4.4l3.5-.2.3-7.1c.2-5.7-.1-7.5-1.5-9.1-2.4-2.7-6-3.4-10.3-2zm6 12.6c0 2.2-2.9 3.6-4.3 2.2-1.5-1.5 0-4.1 2.3-4.1 1.3 0 2 .7 2 1.9zM189.5 18.8c-1.1.2-2.6.9-3.2 1.4-.9.7-1.3.7-1.3-.1 0-.7-1-1.1-2.2-.9-2.2.3-2.3.6-2.3 12.8v12.5l2.8.3c2.5.3 2.7.1 2.7-3.7 0-3.8.1-4 2.4-3.2 1.6.7 3.2.5 5.2-.5 3.9-2 4.4-3.1 4.4-8.9 0-7.4-3-10.8-8.5-9.7zm2.6 6.6c1.4 2.9.4 7.5-1.6 8.3-2.3.8-4.5-1.6-4.5-5.1 0-5.5 4.1-7.6 6.1-3.2zM210.5 19c-1.1.5-3.5.6-5.2.3l-3.3-.5V45h2.5c2.3 0 2.5-.4 2.5-4.1 0-3.7.2-4 2.3-3.3 6.4 2.1 10.2-1.2 10.2-9.2 0-4.9-.4-5.9-2.8-8-3.1-2.6-3.3-2.7-6.2-1.4zm2.3 5.2c1.7 1.7 1.5 7.3-.2 8.7-1.1.9-2 1-3.5.1-2.7-1.4-2.9-7.4-.3-8.9 2.2-1.3 2.6-1.3 4 .1zM248 18.7c-3 .6-5 2.1-5 3.8 0 .9 1.4 1.3 4.6 1.2 5.9-.2 7.1 1.9 1.7 2.9-6.1 1.1-9 5.1-6.5 9.1 1.2 1.8 5.5 3.1 7.7 2.3 1.1-.4 3.2-.5 4.8-.3l2.7.5v-8c0-6-.4-8.5-1.6-9.6-.8-.9-1.9-1.6-2.4-1.6s-1.4-.2-2.2-.4c-.7-.2-2.4-.1-3.8.1zm5 12.8c0 2.4-3.6 3.7-5.1 1.9-1-1.3-1-1.7.2-2.5 2.2-1.4 4.9-1.1 4.9.6zM269.8 19.6c-1.6.8-2.8 1-2.8.4 0-.5-.9-1-2-1-1.9 0-2 .7-2 9.5 0 9.5 0 9.5 2.5 9.5 2.4 0 2.5-.2 2.5-6.5 0-5.5.3-6.6 2.1-7.6 3.1-1.6 4.2.1 4.7 7.6.4 6.1.6 6.5 2.8 6.5 2.3 0 2.4-.3 2.4-7.4 0-5.6-.4-7.9-1.7-9.4-2.5-2.8-5.3-3.4-8.5-1.6zM288.4 19.5c-5.6 2.3-7.1 12.8-2.4 17 2.2 2 8.4 2.3 10.5.5 1.4-1.1 2.2-5 1-5-.2 0-1.5.5-2.9 1.1-3.4 1.6-5.6-.3-5.6-4.5 0-4.8 1.2-6 5.4-5.2 2.8.5 3.6.4 3.6-.7 0-3.4-5.3-5.1-9.6-3.2zM305.2 19.5c-5.5 2.4-7.1 11.2-2.9 16.1 2 2.3 3.2 2.7 7.1 2.7 8.5-.2 10.4-4.6 2.1-4.7-3.9-.1-5-.5-5.3-1.9-.3-1.4.5-1.7 5.1-1.7 5.9 0 6.8-.8 6-5.3-1-5.1-6.6-7.5-12.1-5.2zm5.2 3.1c2.8 1.1 1.8 3.4-1.4 3.4-3 0-4.3-2.3-1.7-3.3.6-.3 1.3-.6 1.4-.6.1-.1.8.2 1.7.5zM233 28.5v9.6l2.8-.3 2.7-.3v-18l-2.7-.3-2.8-.3v9.6z"/></svg><svg viewBox="0 0 512 512" id="phone" xmlns="http://www.w3.org/2000/svg"><!--! Font Awesome Free 6.3.0 by @fontawesome - https://fontawesome.com License - https://fontawesome.com/license/free (Icons: CC BY 4.0, Fonts: SIL OFL 1.1, Code: MIT License) Copyright 2023 Fonticons, Inc.--><path d="M164.9 24.6c-7.7-18.6-28-28.5-47.4-23.2l-88 24C12.1 30.2 0 46 0 64c0 247.4 200.6 448 448 448 18 0 33.8-12.1 38.6-29.5l24-88c5.3-19.4-4.6-39.7-23.2-47.4l-96-40c-16.3-6.8-35.2-2.1-46.3 11.6L304.7 368c-70.4-33.3-127.4-90.3-160.7-160.7l49.3-40.3c13.7-11.2 18.4-30 11.6-46.3l-40-96z"/></svg></svg>